<?xml version="1.0" encoding="utf-8"?>
<!-- Generator: Adobe Illustrator 21.1.0, SVG Export Plug-In . SVG Version: 6.00 Build 0)  -->
<svg version="1.1" id="Layer_1" xmlns="http://www.w3.org/2000/svg" xmlns:xlink="http://www.w3.org/1999/xlink" x="0px" y="0px"
	 viewBox="0 0 145 125.2" style="enable-background:new 0 0 145 125.2;" xml:space="preserve">
<style type="text/css">
	.st0{opacity:0.1;}
	.st1{fill:none;}
	.st2{fill:none;stroke:#000000;stroke-miterlimit:10;}
	.st3{fill:none;stroke:#000000;stroke-linecap:round;stroke-linejoin:round;stroke-miterlimit:10;}
	.st4{stroke:#000000;stroke-width:0.25;stroke-linecap:round;stroke-linejoin:round;stroke-miterlimit:10;}
</style>
<g class="st0">
	<g>
		<g>
			<path d="M82.2,57.8L80,57.3c-0.4-0.1-0.7-0.5-0.6-0.9l2.8-12.2c0.1-0.4,0.5-0.7,0.9-0.6l2.2,0.5c0.4,0.1,0.7,0.5,0.6,0.9
				l-2.8,12.2C83.1,57.7,82.6,57.9,82.2,57.8z M83,44.3C82.9,44.3,82.9,44.3,83,44.3l-2.8,12.3c0,0,0,0.1,0,0.1l2.2,0.5
				c0,0,0.1,0,0.1,0l2.8-12.2c0,0,0-0.1,0-0.1L83,44.3z"/>
			<path d="M81.7,60.3l-2.2-0.5c-0.4-0.1-0.7-0.5-0.6-0.9l0.3-1.2c0.1-0.4,0.5-0.7,0.9-0.6l2.2,0.5c0.4,0.1,0.7,0.5,0.6,0.9
				l-0.3,1.2C82.5,60.1,82.1,60.4,81.7,60.3z M79.9,57.7C79.9,57.7,79.9,57.8,79.9,57.7L79.6,59c0,0,0,0.1,0,0.1l2.2,0.5
				c0,0,0.1,0,0.1,0l0.3-1.2c0,0,0-0.1,0-0.1L79.9,57.7z"/>
			<path d="M85.3,44.4l-2.2-0.5c-0.4-0.1-0.7-0.5-0.6-0.9l0.3-1.2c0.1-0.4,0.5-0.7,0.9-0.6l2.2,0.5c0.4,0.1,0.7,0.5,0.6,0.9
				l-0.3,1.2C86.1,44.2,85.7,44.5,85.3,44.4z M83.5,41.9C83.5,41.8,83.5,41.9,83.5,41.9l-0.3,1.2c0,0,0,0.1,0,0.1l2.2,0.5
				c0,0,0.1,0,0.1,0l0.3-1.2c0,0,0-0.1,0-0.1L83.5,41.9z"/>
			<path d="M79.7,63.6c-0.2,0-0.3-0.2-0.3-0.3L79.1,60c0-0.1,0-0.2,0.1-0.3c0.1-0.1,0.2-0.1,0.3-0.1l2.2,0.5c0.1,0,0.2,0.1,0.3,0.2
				c0,0.1,0,0.2,0,0.3l-1.8,2.9C80,63.6,79.9,63.7,79.7,63.6z M79.8,60.4l0.2,1.8l1-1.6L79.8,60.4z"/>
			<path d="M80.3,49.6L80.3,49.6c-0.5-0.1-0.8-0.6-0.7-1l1.6-6.9c0.1-0.5,0.6-0.7,1-0.6c0.5,0.1,0.8,0.6,0.7,1l-1.6,6.9
				C81.2,49.4,80.7,49.7,80.3,49.6z M82.1,41.7c-0.1,0-0.2,0-0.2,0.1l-1.6,6.9c0,0.1,0,0.1,0.1,0.1l0.1,0c0.1,0,0.1,0,0.1-0.1
				l1.6-6.9C82.2,41.8,82.1,41.8,82.1,41.7z"/>
		</g>
		<g>
			<path d="M140.1,43.7l-3.1-12.2c-0.1-0.4,0.1-0.8,0.6-1l2.2-0.6c0.4-0.1,0.8,0.1,1,0.6l3.1,12.2c0.1,0.4-0.1,0.8-0.6,1l-2.2,0.6
				C140.6,44.4,140.2,44.2,140.1,43.7z M137.7,31.3C137.6,31.3,137.6,31.4,137.7,31.3l3.1,12.2c0,0,0,0.1,0.1,0L143,43
				c0,0,0.1,0,0-0.1l-3.1-12.2c0,0,0-0.1-0.1,0L137.7,31.3z"/>
			<path d="M140.7,46.1l-0.3-1.2c-0.1-0.4,0.1-0.8,0.6-1l2.2-0.6c0.4-0.1,0.8,0.1,1,0.6l0.3,1.2c0.1,0.4-0.1,0.8-0.6,1l-2.2,0.6
				C141.2,46.8,140.8,46.6,140.7,46.1z M141.1,44.7C141.1,44.7,141.1,44.7,141.1,44.7l0.3,1.2c0,0,0,0.1,0.1,0l2.2-0.6
				c0,0,0.1,0,0-0.1l-0.3-1.2c0,0,0-0.1-0.1,0L141.1,44.7z"/>
			<path d="M136.6,30.4l-0.3-1.2c-0.1-0.4,0.1-0.8,0.6-1l2.2-0.6c0.4-0.1,0.8,0.1,1,0.6l0.3,1.2c0.1,0.4-0.1,0.8-0.6,1l-2.2,0.6
				C137.1,31,136.7,30.8,136.6,30.4z M137,28.9C137,28.9,137,29,137,28.9l0.3,1.2c0,0,0,0.1,0.1,0l2.2-0.6c0,0,0.1,0,0-0.1l-0.3-1.2
				c0,0,0-0.1-0.1,0L137,28.9z"/>
			<path d="M143.3,49.9l-1.9-2.8c-0.1-0.1-0.1-0.2,0-0.3c0-0.1,0.1-0.2,0.2-0.2l2.2-0.6c0.1,0,0.2,0,0.3,0.1
				c0.1,0.1,0.1,0.2,0.1,0.3l-0.3,3.4c0,0.2-0.1,0.3-0.3,0.3S143.4,50,143.3,49.9z M142.3,47.1l1,1.5l0.2-1.8L142.3,47.1z"/>
			<path d="M141.7,35.4l-1.8-6.8c-0.1-0.5,0.2-0.9,0.7-1.1c0.5-0.1,0.9,0.2,1,0.6l1.8,6.8c0.1,0.5-0.2,0.9-0.6,1l-0.1,0
				C142.2,36.1,141.8,35.8,141.7,35.4z M140.6,28.4l1.8,6.8c0,0.1,0.1,0.1,0.1,0.1l0.1,0c0.1,0,0.1-0.1,0.1-0.1l-1.8-6.8
				c0-0.1-0.1-0.1-0.2-0.1C140.6,28.2,140.6,28.3,140.6,28.4z"/>
		</g>
		<g>
			<path d="M129.1,118.5l8.1-9.6c0.3-0.3,0.8-0.4,1.1-0.1l1.7,1.5c0.3,0.3,0.4,0.8,0.1,1.1l-8.1,9.6c-0.3,0.3-0.8,0.4-1.1,0.1
				l-1.7-1.5C128.9,119.3,128.9,118.8,129.1,118.5z M137.9,109.3C137.9,109.3,137.8,109.3,137.9,109.3l-8.2,9.6c0,0,0,0.1,0,0.1
				l1.7,1.5c0,0,0.1,0,0.1,0l8.1-9.6c0,0,0-0.1,0-0.1L137.9,109.3z"/>
			<path d="M127.5,120.4l0.8-0.9c0.3-0.3,0.8-0.4,1.1-0.1l1.7,1.5c0.3,0.3,0.4,0.8,0.1,1.1l-0.8,0.9c-0.3,0.3-0.8,0.4-1.1,0.1
				l-1.7-1.5C127.3,121.2,127.3,120.7,127.5,120.4z M129,119.9C128.9,119.9,128.9,119.9,129,119.9l-0.9,0.9c0,0,0,0.1,0,0.1l1.7,1.5
				c0,0,0.1,0,0.1,0l0.8-0.9c0,0,0-0.1,0-0.1L129,119.9z"/>
			<path d="M138.1,107.9l0.8-0.9c0.3-0.3,0.8-0.4,1.1-0.1l1.7,1.5c0.3,0.3,0.4,0.8,0.1,1.1l-0.8,0.9c-0.3,0.3-0.8,0.4-1.1,0.1
				l-1.7-1.5C137.8,108.7,137.8,108.3,138.1,107.9z M139.5,107.5C139.5,107.4,139.4,107.4,139.5,107.5l-0.9,0.9c0,0,0,0.1,0,0.1
				l1.7,1.5c0,0,0.1,0,0.1,0l0.8-0.9c0,0,0-0.1,0-0.1L139.5,107.5z"/>
			<path d="M126,124.7l1.2-3.2c0-0.1,0.1-0.2,0.2-0.2c0.1,0,0.2,0,0.3,0.1l1.7,1.5c0.1,0.1,0.1,0.2,0.1,0.3c0,0.1-0.1,0.2-0.2,0.3
				l-2.9,1.7c-0.1,0.1-0.3,0.1-0.4,0C126,125,126,124.8,126,124.7z M127.7,122.2l-0.7,1.7l1.6-0.9L127.7,122.2z"/>
			<path d="M136.9,114.9l4.6-5.4c0.3-0.4,0.8-0.4,1.2-0.1c0.4,0.3,0.4,0.8,0.1,1.2l-4.6,5.4c-0.3,0.4-0.8,0.4-1.2,0.1l-0.1,0
				C136.6,115.8,136.6,115.3,136.9,114.9z M142,110l-4.6,5.4c0,0.1,0,0.1,0,0.2l0.1,0c0.1,0,0.1,0,0.2,0l4.6-5.4
				c0-0.1,0-0.1-0.1-0.2C142.1,110,142.1,110,142,110z"/>
		</g>
		<g>
			<g>
				
					<ellipse transform="matrix(0.9851 -0.1719 0.1719 0.9851 -8.5713 9.7156)" class="st1" cx="51.8" cy="54.4" rx="12.9" ry="12.9"/>
				<path d="M54.1,67.5c-7.3,1.3-14.2-3.6-15.5-10.9s3.6-14.2,10.9-15.5S63.7,44.8,65,52.1C66.3,59.3,61.4,66.3,54.1,67.5z
					 M49.7,42.2c-6.7,1.2-11.2,7.6-10,14.3c1.2,6.7,7.6,11.2,14.3,10c6.7-1.2,11.2-7.6,10-14.3C62.8,45.5,56.4,41,49.7,42.2z"/>
			</g>
			<g>
				<ellipse transform="matrix(0.9851 -0.1719 0.1719 0.9851 -8.5713 9.7156)" class="st1" cx="51.8" cy="54.4" rx="11" ry="11"/>
				<path d="M53.8,65.7c-6.2,1.1-12.2-3.1-13.3-9.3s3.1-12.2,9.3-13.3s12.2,3.1,13.3,9.3C64.2,58.6,60,64.6,53.8,65.7z M50,44.1
					c-5.7,1-9.5,6.4-8.5,12.1c1,5.7,6.4,9.5,12.1,8.5s9.5-6.4,8.5-12.1C61.1,46.9,55.7,43.1,50,44.1z"/>
			</g>
			<path d="M59.7,58.1c-0.1,0-0.2,0-0.3,0l-7.9-3c-0.2-0.1-0.3-0.2-0.3-0.4L50,47.3c-0.1-0.3,0.1-0.6,0.4-0.6
				c0.3-0.1,0.6,0.1,0.6,0.4l1.2,7l7.6,2.9c0.3,0.1,0.4,0.4,0.3,0.7C60.1,57.9,59.9,58,59.7,58.1z"/>
		</g>
		<g>
			<path d="M56.9,16.2l-15,2.6c-0.3,0-0.6-0.1-0.6-0.4c0-0.3,0.1-0.6,0.4-0.6l15-2.6c0.3,0,0.6,0.1,0.6,0.4S57.2,16.2,56.9,16.2z"/>
			<path d="M57.4,19.2l-15,2.6c-0.3,0-0.6-0.1-0.6-0.4c0-0.3,0.1-0.6,0.4-0.6l15-2.6c0.3,0,0.6,0.1,0.6,0.4
				C57.9,18.9,57.7,19.2,57.4,19.2z"/>
			<path d="M67.9,21.3l-7.5,1.3c-0.3,0-0.6-0.1-0.6-0.4c0-0.3,0.1-0.6,0.4-0.6l7.5-1.3c0.3,0,0.6,0.1,0.6,0.4
				C68.4,20.9,68.2,21.2,67.9,21.3z"/>
			<g>
				<path d="M68.8,25l-25.7,4.4c-1.9,0.3-3.8-1-4.1-2.9l-1.6-9c-0.3-1.9,1-3.8,2.9-4.1l25.7-4.4c1.9-0.3,3.8,1,4.1,2.9l1.6,9
					C72.1,22.8,70.8,24.6,68.8,25z M40.6,14.4c-1.4,0.2-2.3,1.5-2,2.9l1.6,9c0.2,1.4,1.5,2.3,2.9,2l25.7-4.4c1.4-0.2,2.3-1.5,2-2.9
					l-1.6-9c-0.2-1.4-1.5-2.3-2.9-2L40.6,14.4z"/>
			</g>
		</g>
		<g>
			<g>
				<path d="M17.5,71.7L2,67.4c-1.2-0.3-2-1.6-1.6-2.9l6.4-23c0.3-1.2,1.6-2,2.9-1.6l15.6,4.3c1.2,0.3,2,1.6,1.6,2.9l-6.4,23
					C20.1,71.3,18.8,72,17.5,71.7z M9.5,40.4c-1-0.3-1.9,0.3-2.2,1.2l-6.4,23c-0.3,1,0.3,1.9,1.2,2.2l15.6,4.3
					c1,0.3,1.9-0.3,2.2-1.2l6.4-23c0.3-1-0.3-1.9-1.2-2.2L9.5,40.4z"/>
				<path d="M17.5,71.9L1.9,67.6c-1.4-0.4-2.2-1.8-1.8-3.2l6.4-23c0.4-1.4,1.8-2.2,3.2-1.8l15.6,4.3c1.4,0.4,2.2,1.8,1.8,3.2
					l-6.4,23C20.3,71.5,18.9,72.3,17.5,71.9z M9.5,40.1c-1.1-0.3-2.2,0.3-2.5,1.4l-6.4,23c-0.3,1.1,0.3,2.2,1.4,2.5l15.6,4.3
					c1.1,0.3,2.2-0.3,2.5-1.4l6.4-23c0.3-1.1-0.3-2.2-1.4-2.5L9.5,40.1z M17.6,71.4L2,67.1c-1.1-0.3-1.7-1.4-1.4-2.5l6.4-23
					c0.3-1.1,1.4-1.7,2.5-1.4l15.6,4.3c1.1,0.3,1.7,1.4,1.4,2.5l-6.4,23C19.8,71.1,18.7,71.7,17.6,71.4z M9.4,40.6
					c-0.8-0.2-1.7,0.3-1.9,1.1l-6.4,23c-0.2,0.8,0.3,1.7,1.1,1.9l15.6,4.3c0.8,0.2,1.7-0.3,1.9-1.1l6.4-23c0.2-0.8-0.3-1.7-1.1-1.9
					L9.4,40.6z"/>
			</g>
			<g>
				<g>
					<path d="M7.2,57.3l-1.9-0.5c-0.4-0.1-0.7-0.6-0.6-1l0.5-1.9c0.1-0.4,0.6-0.7,1-0.6l1.9,0.5c0.4,0.1,0.7,0.6,0.6,1l-0.5,1.9
						C8.1,57.2,7.6,57.4,7.2,57.3z M6.2,53.9c-0.1,0-0.3,0-0.3,0.2l-0.5,1.9c0,0.1,0,0.3,0.2,0.3l1.9,0.5c0.1,0,0.3,0,0.3-0.2
						l0.5-1.9c0-0.1,0-0.3-0.2-0.3L6.2,53.9z"/>
					<path d="M7.2,57.4l-1.9-0.5c-0.5-0.1-0.8-0.7-0.7-1.2l0.5-1.9c0.1-0.5,0.7-0.8,1.2-0.7l1.9,0.5c0.5,0.1,0.8,0.7,0.7,1.2
						l-0.5,1.9C8.2,57.3,7.7,57.6,7.2,57.4z M6.3,53.5c-0.4-0.1-0.7,0.1-0.8,0.5l-0.5,1.9c-0.1,0.4,0.1,0.7,0.5,0.8l1.9,0.5
						c0.4,0.1,0.7-0.1,0.8-0.5l0.5-1.9c0.1-0.4-0.1-0.7-0.5-0.8L6.3,53.5z M7.3,56.9l-1.9-0.5c-0.2-0.1-0.3-0.3-0.3-0.5L5.7,54
						c0.1-0.2,0.3-0.3,0.5-0.3l1.9,0.5c0.2,0.1,0.3,0.3,0.3,0.5l-0.5,1.9C7.8,56.8,7.5,57,7.3,56.9z M6.1,54C6,54,6,54,5.9,54.1
						L5.4,56c0,0.1,0,0.2,0.1,0.2l1.9,0.5c0.1,0,0.2,0,0.2-0.1l0.5-1.9c0-0.1,0-0.2-0.1-0.2L6.1,54z"/>
				</g>
				<g>
					<path d="M11.4,58.5l-1.9-0.5c-0.4-0.1-0.7-0.6-0.6-1l0.5-1.9c0.1-0.4,0.6-0.7,1-0.6l1.9,0.5c0.4,0.1,0.7,0.6,0.6,1l-0.5,1.9
						C12.2,58.3,11.8,58.6,11.4,58.5z M10.3,55c-0.1,0-0.3,0-0.3,0.2l-0.5,1.9c0,0.1,0,0.3,0.2,0.3l1.9,0.5c0.1,0,0.3,0,0.3-0.2
						l0.5-1.9c0-0.1,0-0.3-0.2-0.3L10.3,55z"/>
					<path d="M11.3,58.6l-1.9-0.5c-0.5-0.1-0.8-0.7-0.7-1.2L9.3,55c0.1-0.5,0.7-0.8,1.2-0.7l1.9,0.5c0.5,0.1,0.8,0.7,0.7,1.2
						l-0.5,1.9C12.4,58.4,11.8,58.7,11.3,58.6z M10.4,54.6c-0.4-0.1-0.7,0.1-0.8,0.5L9.1,57c-0.1,0.4,0.1,0.7,0.5,0.8l1.9,0.5
						c0.4,0.1,0.7-0.1,0.8-0.5l0.5-1.9c0.1-0.4-0.1-0.7-0.5-0.8L10.4,54.6z M11.5,58.1l-1.9-0.5c-0.2-0.1-0.3-0.3-0.3-0.5l0.5-1.9
						c0.1-0.2,0.3-0.3,0.5-0.3l1.9,0.5c0.2,0.1,0.3,0.3,0.3,0.5L12,57.8C11.9,58,11.7,58.1,11.5,58.1z M10.3,55.1
						c-0.1,0-0.2,0-0.2,0.1l-0.5,1.9c0,0.1,0,0.2,0.1,0.2l1.9,0.5c0.1,0,0.2,0,0.2-0.1l0.5-1.9c0-0.1,0-0.2-0.1-0.2L10.3,55.1z"/>
				</g>
				<g>
					<path d="M15.5,59.6l-1.9-0.5c-0.4-0.1-0.7-0.6-0.6-1l0.5-1.9c0.1-0.4,0.6-0.7,1-0.6l1.9,0.5c0.4,0.1,0.7,0.6,0.6,1L16.5,59
						C16.4,59.5,15.9,59.7,15.5,59.6z M14.5,56.2c-0.1,0-0.3,0-0.3,0.2l-0.5,1.9c0,0.1,0,0.3,0.2,0.3l1.9,0.5c0.1,0,0.3,0,0.3-0.2
						l0.5-1.9c0-0.1,0-0.3-0.2-0.3L14.5,56.2z"/>
					<path d="M15.5,59.7l-1.9-0.5c-0.5-0.1-0.8-0.7-0.7-1.2l0.5-1.9c0.1-0.5,0.7-0.8,1.2-0.7l1.9,0.5c0.5,0.1,0.8,0.7,0.7,1.2
						l-0.5,1.9C16.5,59.6,16,59.9,15.5,59.7z M14.6,55.8c-0.4-0.1-0.7,0.1-0.8,0.5l-0.5,1.9c-0.1,0.4,0.1,0.7,0.5,0.8l1.9,0.5
						c0.4,0.1,0.7-0.1,0.8-0.5l0.5-1.9c0.1-0.4-0.1-0.7-0.5-0.8L14.6,55.8z M15.6,59.2l-1.9-0.5c-0.2-0.1-0.3-0.3-0.3-0.5l0.5-1.9
						c0.1-0.2,0.3-0.3,0.5-0.3l1.9,0.5c0.2,0.1,0.3,0.3,0.3,0.5l-0.5,1.9C16.1,59.2,15.8,59.3,15.6,59.2z M14.4,56.3
						c-0.1,0-0.2,0-0.2,0.1l-0.5,1.9c0,0.1,0,0.2,0.1,0.2l1.9,0.5c0.1,0,0.2,0,0.2-0.1l0.5-1.9c0-0.1,0-0.2-0.1-0.2L14.4,56.3z"/>
				</g>
			</g>
			<g>
				<g>
					<path d="M8.4,53.2l-1.9-0.5c-0.4-0.1-0.7-0.6-0.6-1l0.5-1.9c0.1-0.4,0.6-0.7,1-0.6l1.9,0.5c0.4,0.1,0.7,0.6,0.6,1l-0.5,1.9
						C9.2,53,8.8,53.3,8.4,53.2z M7.3,49.7c-0.1,0-0.3,0-0.3,0.2l-0.5,1.9c0,0.1,0,0.3,0.2,0.3l1.9,0.5c0.1,0,0.3,0,0.3-0.2l0.5-1.9
						c0-0.1,0-0.3-0.2-0.3L7.3,49.7z"/>
					<path d="M8.3,53.3l-1.9-0.5c-0.5-0.1-0.8-0.7-0.7-1.2l0.5-1.9c0.1-0.5,0.7-0.8,1.2-0.7l1.9,0.5c0.5,0.1,0.8,0.7,0.7,1.2
						l-0.5,1.9C9.4,53.1,8.8,53.4,8.3,53.3z M7.4,49.3c-0.4-0.1-0.7,0.1-0.8,0.5l-0.5,1.9C6,52,6.2,52.4,6.5,52.5L8.4,53
						c0.4,0.1,0.7-0.1,0.8-0.5l0.5-1.9c0.1-0.4-0.1-0.7-0.5-0.8L7.4,49.3z M8.5,52.8l-1.9-0.5c-0.2-0.1-0.3-0.3-0.3-0.5l0.5-1.9
						c0.1-0.2,0.3-0.3,0.5-0.3l1.9,0.5c0.2,0.1,0.3,0.3,0.3,0.5L9,52.5C8.9,52.7,8.7,52.8,8.5,52.8z M7.3,49.9c-0.1,0-0.2,0-0.2,0.1
						l-0.5,1.9c0,0.1,0,0.2,0.1,0.2l1.9,0.5c0.1,0,0.2,0,0.2-0.1l0.5-1.9c0-0.1,0-0.2-0.1-0.2L7.3,49.9z"/>
				</g>
				<g>
					<path d="M12.5,54.3l-1.9-0.5c-0.4-0.1-0.7-0.6-0.6-1l0.5-1.9c0.1-0.4,0.6-0.7,1-0.6l1.9,0.5c0.4,0.1,0.7,0.6,0.6,1l-0.5,1.9
						C13.4,54.2,12.9,54.4,12.5,54.3z M11.5,50.9c-0.1,0-0.3,0-0.3,0.2l-0.5,1.9c0,0.1,0,0.3,0.2,0.3l1.9,0.5c0.1,0,0.3,0,0.3-0.2
						l0.5-1.9c0-0.1,0-0.3-0.2-0.3L11.5,50.9z"/>
					<path d="M12.5,54.4l-1.9-0.5c-0.5-0.1-0.8-0.7-0.7-1.2l0.5-1.9c0.1-0.5,0.7-0.8,1.2-0.7l1.9,0.5c0.5,0.1,0.8,0.7,0.7,1.2
						l-0.5,1.9C13.5,54.3,13,54.6,12.5,54.4z M11.6,50.5c-0.4-0.1-0.7,0.1-0.8,0.5l-0.5,1.9c-0.1,0.4,0.1,0.7,0.5,0.8l1.9,0.5
						c0.4,0.1,0.7-0.1,0.8-0.5l0.5-1.9c0.1-0.4-0.1-0.7-0.5-0.8L11.6,50.5z M12.6,53.9l-1.9-0.5c-0.2-0.1-0.3-0.3-0.3-0.5L11,51
						c0.1-0.2,0.3-0.3,0.5-0.3l1.9,0.5c0.2,0.1,0.3,0.3,0.3,0.5l-0.5,1.9C13.1,53.9,12.8,54,12.6,53.9z M11.4,51
						c-0.1,0-0.2,0-0.2,0.1L10.7,53c0,0.1,0,0.2,0.1,0.2l1.9,0.5c0.1,0,0.2,0,0.2-0.1l0.5-1.9c0-0.1,0-0.2-0.1-0.2L11.4,51z"/>
				</g>
				<g>
					<path d="M16.7,55.5L14.8,55c-0.4-0.1-0.7-0.6-0.6-1l0.5-1.9c0.1-0.4,0.6-0.7,1-0.6l1.9,0.5c0.4,0.1,0.7,0.6,0.6,1l-0.5,1.9
						C17.5,55.3,17.1,55.6,16.7,55.5z M15.6,52c-0.1,0-0.3,0-0.3,0.2l-0.5,1.9c0,0.1,0,0.3,0.2,0.3l1.9,0.5c0.1,0,0.3,0,0.3-0.2
						l0.5-1.9c0-0.1,0-0.3-0.2-0.3L15.6,52z"/>
					<path d="M16.6,55.6l-1.9-0.5c-0.5-0.1-0.8-0.7-0.7-1.2l0.5-1.9c0.1-0.5,0.7-0.8,1.2-0.7l1.9,0.5c0.5,0.1,0.8,0.7,0.7,1.2
						l-0.5,1.9C17.7,55.4,17.1,55.7,16.6,55.6z M15.7,51.6c-0.4-0.1-0.7,0.1-0.8,0.5L14.4,54c-0.1,0.4,0.1,0.7,0.5,0.8l1.9,0.5
						c0.4,0.1,0.7-0.1,0.8-0.5l0.5-1.9c0.1-0.4-0.1-0.7-0.5-0.8L15.7,51.6z M16.8,55.1l-1.9-0.5c-0.2-0.1-0.3-0.3-0.3-0.5l0.5-1.9
						c0.1-0.2,0.3-0.3,0.5-0.3l1.9,0.5c0.2,0.1,0.3,0.3,0.3,0.5l-0.5,1.9C17.2,55,17,55.1,16.8,55.1z M15.6,52.2
						c-0.1,0-0.2,0-0.2,0.1l-0.5,1.9c0,0.1,0,0.2,0.1,0.2l1.9,0.5c0.1,0,0.2,0,0.2-0.1l0.5-1.9c0-0.1,0-0.2-0.1-0.2L15.6,52.2z"/>
				</g>
			</g>
			<g>
				<g>
					<path d="M6.1,61.4l-1.9-0.5c-0.4-0.1-0.7-0.6-0.6-1l0.5-1.9c0.1-0.4,0.6-0.7,1-0.6L7,58c0.4,0.1,0.7,0.6,0.6,1l-0.5,1.9
						C6.9,61.3,6.5,61.6,6.1,61.4z M5,58c-0.1,0-0.3,0-0.3,0.2l-0.5,1.9c0,0.1,0,0.3,0.2,0.3l1.9,0.5c0.1,0,0.3,0,0.3-0.2l0.5-1.9
						c0-0.1,0-0.3-0.2-0.3L5,58z"/>
					<path d="M6,61.6l-1.9-0.5c-0.5-0.1-0.8-0.7-0.7-1.2L4,58c0.1-0.5,0.7-0.8,1.2-0.7L7,57.9C7.6,58,7.9,58.5,7.7,59l-0.5,1.9
						C7.1,61.4,6.5,61.7,6,61.6z M5.1,57.6c-0.4-0.1-0.7,0.1-0.8,0.5L3.8,60c-0.1,0.4,0.1,0.7,0.5,0.8l1.9,0.5
						c0.4,0.1,0.7-0.1,0.8-0.5L7.5,59c0.1-0.4-0.1-0.7-0.5-0.8L5.1,57.6z M6.2,61.1l-1.9-0.5C4.1,60.5,4,60.2,4,60l0.5-1.9
						c0.1-0.2,0.3-0.3,0.5-0.3l1.9,0.5c0.2,0.1,0.3,0.3,0.3,0.5l-0.5,1.9C6.6,61,6.4,61.1,6.2,61.1z M5,58.1c-0.1,0-0.2,0-0.2,0.1
						l-0.5,1.9c0,0.1,0,0.2,0.1,0.2l1.9,0.5c0.1,0,0.2,0,0.2-0.1l0.5-1.9c0-0.1,0-0.2-0.1-0.2L5,58.1z"/>
				</g>
				<g>
					<path d="M10.2,62.6l-1.9-0.5c-0.4-0.1-0.7-0.6-0.6-1l0.5-1.9c0.1-0.4,0.6-0.7,1-0.6l1.9,0.5c0.4,0.1,0.7,0.6,0.6,1L11.2,62
						C11.1,62.5,10.6,62.7,10.2,62.6z M9.2,59.2c-0.1,0-0.3,0-0.3,0.2l-0.5,1.9c0,0.1,0,0.3,0.2,0.3l1.9,0.5c0.1,0,0.3,0,0.3-0.2
						l0.5-1.9c0-0.1,0-0.3-0.2-0.3L9.2,59.2z"/>
					<path d="M10.2,62.7l-1.9-0.5c-0.5-0.1-0.8-0.7-0.7-1.2l0.5-1.9c0.1-0.5,0.7-0.8,1.2-0.7l1.9,0.5c0.5,0.1,0.8,0.7,0.7,1.2
						l-0.5,1.9C11.2,62.6,10.7,62.9,10.2,62.7z M9.3,58.8c-0.4-0.1-0.7,0.1-0.8,0.5l-0.5,1.9C7.8,61.5,8,61.9,8.4,62l1.9,0.5
						c0.4,0.1,0.7-0.1,0.8-0.5l0.5-1.9c0.1-0.4-0.1-0.7-0.5-0.8L9.3,58.8z M10.3,62.2l-1.9-0.5c-0.2-0.1-0.3-0.3-0.3-0.5l0.5-1.9
						C8.7,59.1,9,59,9.2,59l1.9,0.5c0.2,0.1,0.3,0.3,0.3,0.5l-0.5,1.9C10.8,62.1,10.5,62.3,10.3,62.2z M9.1,59.3
						c-0.1,0-0.2,0-0.2,0.1l-0.5,1.9c0,0.1,0,0.2,0.1,0.2l1.9,0.5c0.1,0,0.2,0,0.2-0.1l0.5-1.9c0-0.1,0-0.2-0.1-0.2L9.1,59.3z"/>
				</g>
				<g>
					<path d="M14.4,63.8l-1.9-0.5c-0.4-0.1-0.7-0.6-0.6-1l0.5-1.9c0.1-0.4,0.6-0.7,1-0.6l1.9,0.5c0.4,0.1,0.7,0.6,0.6,1l-0.5,1.9
						C15.2,63.6,14.8,63.9,14.4,63.8z M13.3,60.3c-0.1,0-0.3,0-0.3,0.2l-0.5,1.9c0,0.1,0,0.3,0.2,0.3l1.9,0.5c0.1,0,0.3,0,0.3-0.2
						l0.5-1.9c0-0.1,0-0.3-0.2-0.3L13.3,60.3z"/>
					<path d="M14.3,63.9l-1.9-0.5c-0.5-0.1-0.8-0.7-0.7-1.2l0.5-1.9c0.1-0.5,0.7-0.8,1.2-0.7l1.9,0.5c0.5,0.1,0.8,0.7,0.7,1.2
						l-0.5,1.9C15.4,63.7,14.8,64,14.3,63.9z M13.4,59.9c-0.4-0.1-0.7,0.1-0.8,0.5l-0.5,1.9c-0.1,0.4,0.1,0.7,0.5,0.8l1.9,0.5
						c0.4,0.1,0.7-0.1,0.8-0.5l0.5-1.9c0.1-0.4-0.1-0.7-0.5-0.8L13.4,59.9z M14.5,63.4l-1.9-0.5c-0.2-0.1-0.3-0.3-0.3-0.5l0.5-1.9
						c0.1-0.2,0.3-0.3,0.5-0.3l1.9,0.5c0.2,0.1,0.3,0.3,0.3,0.5L15,63.1C14.9,63.3,14.7,63.4,14.5,63.4z M13.3,60.4
						c-0.1,0-0.2,0-0.2,0.1l-0.5,1.9c0,0.1,0,0.2,0.1,0.2l1.9,0.5c0.1,0,0.2,0,0.2-0.1l0.5-1.9c0-0.1,0-0.2-0.1-0.2L13.3,60.4z"/>
				</g>
			</g>
			<g>
				<g>
					<path d="M4.9,65.6L3,65.1c-0.4-0.1-0.7-0.6-0.6-1L3,62.2c0.1-0.4,0.6-0.7,1-0.6l1.9,0.5c0.4,0.1,0.7,0.6,0.6,1L5.9,65
						C5.8,65.5,5.3,65.7,4.9,65.6z M3.9,62.1c-0.1,0-0.3,0-0.3,0.2L3,64.2c0,0.1,0,0.3,0.2,0.3L5,65.1c0.1,0,0.3,0,0.3-0.2L5.9,63
						c0-0.1,0-0.3-0.2-0.3L3.9,62.1z"/>
					<path d="M4.9,65.7L3,65.2c-0.5-0.1-0.8-0.7-0.7-1.2l0.5-1.9C3,61.7,3.5,61.4,4,61.5L5.9,62c0.5,0.1,0.8,0.7,0.7,1.2L6,65
						C5.9,65.6,5.4,65.9,4.9,65.7z M4,61.8c-0.4-0.1-0.7,0.1-0.8,0.5l-0.5,1.9c-0.1,0.4,0.1,0.7,0.5,0.8l1.9,0.5
						c0.4,0.1,0.7-0.1,0.8-0.5l0.5-1.9c0.1-0.4-0.1-0.7-0.5-0.8L4,61.8z M5,65.2l-1.9-0.5c-0.2-0.1-0.3-0.3-0.3-0.5l0.5-1.9
						C3.4,62.1,3.7,62,3.9,62l1.9,0.5C6,62.6,6.1,62.8,6,63l-0.5,1.9C5.5,65.1,5.2,65.3,5,65.2z M3.8,62.3c-0.1,0-0.2,0-0.2,0.1
						l-0.5,1.9c0,0.1,0,0.2,0.1,0.2l1.9,0.5c0.1,0,0.2,0,0.2-0.1L5.8,63c0-0.1,0-0.2-0.1-0.2L3.8,62.3z"/>
				</g>
				<g>
					<path d="M9.1,66.7l-1.9-0.5c-0.4-0.1-0.7-0.6-0.6-1l0.5-1.9c0.1-0.4,0.6-0.7,1-0.6l1.9,0.5c0.4,0.1,0.7,0.6,0.6,1l-0.5,1.9
						C9.9,66.6,9.5,66.9,9.1,66.7z M8,63.3c-0.1,0-0.3,0-0.3,0.2l-0.5,1.9c0,0.1,0,0.3,0.2,0.3l1.9,0.5c0.1,0,0.3,0,0.3-0.2l0.5-1.9
						c0-0.1,0-0.3-0.2-0.3L8,63.3z"/>
					<path d="M9,66.9l-1.9-0.5c-0.5-0.1-0.8-0.7-0.7-1.2L7,63.3c0.1-0.5,0.7-0.8,1.2-0.7l1.9,0.5c0.5,0.1,0.8,0.7,0.7,1.2l-0.5,1.9
						C10.1,66.7,9.5,67,9,66.9z M8.1,62.9c-0.4-0.1-0.7,0.1-0.8,0.5l-0.5,1.9c-0.1,0.4,0.1,0.7,0.5,0.8l1.9,0.5
						c0.4,0.1,0.7-0.1,0.8-0.5l0.5-1.9c0.1-0.4-0.1-0.7-0.5-0.8L8.1,62.9z M9.2,66.3l-1.9-0.5C7.1,65.8,7,65.5,7,65.3l0.5-1.9
						c0.1-0.2,0.3-0.3,0.5-0.3l1.9,0.5c0.2,0.1,0.3,0.3,0.3,0.5l-0.5,1.9C9.6,66.3,9.4,66.4,9.2,66.3z M8,63.4c-0.1,0-0.2,0-0.2,0.1
						l-0.5,1.9c0,0.1,0,0.2,0.1,0.2l1.9,0.5c0.1,0,0.2,0,0.2-0.1l0.5-1.9c0-0.1,0-0.2-0.1-0.2L8,63.4z"/>
				</g>
				<g>
					<path d="M13.2,67.9l-1.9-0.5c-0.4-0.1-0.7-0.6-0.6-1l0.5-1.9c0.1-0.4,0.6-0.7,1-0.6l1.9,0.5c0.4,0.1,0.7,0.6,0.6,1l-0.5,1.9
						C14.1,67.8,13.6,68,13.2,67.9z M12.2,64.5c-0.1,0-0.3,0-0.3,0.2l-0.5,1.9c0,0.1,0,0.3,0.2,0.3l1.9,0.5c0.1,0,0.3,0,0.3-0.2
						l0.5-1.9c0-0.1,0-0.3-0.2-0.3L12.2,64.5z"/>
					<path d="M13.2,68l-1.9-0.5c-0.5-0.1-0.8-0.7-0.7-1.2l0.5-1.9c0.1-0.5,0.7-0.8,1.2-0.7l1.9,0.5c0.5,0.1,0.8,0.7,0.7,1.2
						l-0.5,1.9C14.2,67.9,13.7,68.2,13.2,68z M12.3,64.1c-0.4-0.1-0.7,0.1-0.8,0.5l-0.5,1.9c-0.1,0.4,0.1,0.7,0.5,0.8l1.9,0.5
						c0.4,0.1,0.7-0.1,0.8-0.5l0.5-1.9c0.1-0.4-0.1-0.7-0.5-0.8L12.3,64.1z M13.3,67.5L11.5,67c-0.2-0.1-0.3-0.3-0.3-0.5l0.5-1.9
						c0.1-0.2,0.3-0.3,0.5-0.3l1.9,0.5c0.2,0.1,0.3,0.3,0.3,0.5l-0.5,1.9C13.8,67.4,13.5,67.6,13.3,67.5z M12.1,64.6
						c-0.1,0-0.2,0-0.2,0.1l-0.5,1.9c0,0.1,0,0.2,0.1,0.2l1.9,0.5c0.1,0,0.2,0,0.2-0.1l0.5-1.9c0-0.1,0-0.2-0.1-0.2L12.1,64.6z"/>
				</g>
			</g>
			<g>
				<path d="M20.1,60.9l-1.9-0.5c-0.4-0.1-0.7-0.6-0.6-1l0.5-1.9c0.1-0.4,0.6-0.7,1-0.6l1.9,0.5c0.4,0.1,0.7,0.6,0.6,1l-0.5,1.9
					C21,60.7,20.5,61,20.1,60.9z M19,57.4c-0.1,0-0.3,0-0.3,0.2l-0.5,1.9c0,0.1,0,0.3,0.2,0.3l1.9,0.5c0.1,0,0.3,0,0.3-0.2l0.5-1.9
					c0-0.1,0-0.3-0.2-0.3L19,57.4z"/>
				<path d="M20.1,61l-1.9-0.5c-0.5-0.1-0.8-0.7-0.7-1.2l0.5-1.9c0.1-0.5,0.7-0.8,1.2-0.7l1.9,0.5c0.5,0.1,0.8,0.7,0.7,1.2l-0.5,1.9
					C21.1,60.8,20.6,61.1,20.1,61z M19.2,57c-0.4-0.1-0.7,0.1-0.8,0.5l-0.5,1.9c-0.1,0.4,0.1,0.7,0.5,0.8l1.9,0.5
					c0.4,0.1,0.7-0.1,0.8-0.5l0.5-1.9c0.1-0.4-0.1-0.7-0.5-0.8L19.2,57z M20.2,60.5L18.3,60c-0.2-0.1-0.3-0.3-0.3-0.5l0.5-1.9
					c0.1-0.2,0.3-0.3,0.5-0.3l1.9,0.5c0.2,0.1,0.3,0.3,0.3,0.5l-0.5,1.9C20.7,60.4,20.4,60.5,20.2,60.5z M19,57.6
					c-0.1,0-0.2,0-0.2,0.1l-0.5,1.9c0,0.1,0,0.2,0.1,0.2l1.9,0.5c0.1,0,0.2,0,0.2-0.1l0.5-1.9c0-0.1,0-0.2-0.1-0.2L19,57.6z"/>
			</g>
			<g>
				<path d="M21.2,56.7l-1.9-0.5c-0.4-0.1-0.7-0.6-0.6-1l0.5-1.9c0.1-0.4,0.6-0.7,1-0.6l1.9,0.5c0.4,0.1,0.7,0.6,0.6,1l-0.5,1.9
					C22.1,56.6,21.7,56.9,21.2,56.7z M20.2,53.3c-0.1,0-0.3,0-0.3,0.2l-0.5,1.9c0,0.1,0,0.3,0.2,0.3l1.9,0.5c0.1,0,0.3,0,0.3-0.2
					l0.5-1.9c0-0.1,0-0.3-0.2-0.3L20.2,53.3z"/>
				<path d="M21.2,56.9l-1.9-0.5c-0.5-0.1-0.8-0.7-0.7-1.2l0.5-1.9c0.1-0.5,0.7-0.8,1.2-0.7l1.9,0.5c0.5,0.1,0.8,0.7,0.7,1.2
					l-0.5,1.9C22.2,56.7,21.7,57,21.2,56.9z M20.3,52.9c-0.4-0.1-0.7,0.1-0.8,0.5l-0.5,1.9c-0.1,0.4,0.1,0.7,0.5,0.8l1.9,0.5
					c0.4,0.1,0.7-0.1,0.8-0.5l0.5-1.9c0.1-0.4-0.1-0.7-0.5-0.8L20.3,52.9z M21.3,56.4l-1.9-0.5c-0.2-0.1-0.3-0.3-0.3-0.5l0.5-1.9
					c0.1-0.2,0.3-0.3,0.5-0.3l1.9,0.5c0.2,0.1,0.3,0.3,0.3,0.5l-0.5,1.9C21.8,56.3,21.6,56.4,21.3,56.4z M20.2,53.4
					c-0.1,0-0.2,0-0.2,0.1l-0.5,1.9c0,0.1,0,0.2,0.1,0.2l1.9,0.5c0.1,0,0.2,0,0.2-0.1l0.5-1.9c0-0.1,0-0.2-0.1-0.2L20.2,53.4z"/>
			</g>
			<g>
				<path d="M22.7,51.4L8,47.3c-0.4-0.1-0.7-0.6-0.6-1L8.3,43c0.1-0.4,0.6-0.7,1-0.6l14.7,4.1c0.4,0.1,0.7,0.6,0.6,1l-0.9,3.3
					C23.6,51.2,23.2,51.5,22.7,51.4z M9.2,42.9c-0.1,0-0.3,0-0.3,0.2l-0.9,3.3c0,0.1,0,0.3,0.2,0.3l14.7,4.1c0.1,0,0.3,0,0.3-0.2
					l0.9-3.3c0-0.1,0-0.3-0.2-0.3L9.2,42.9z"/>
				<path d="M22.7,51.5L8,47.4c-0.5-0.1-0.8-0.7-0.7-1.2l0.9-3.3c0.1-0.5,0.7-0.8,1.2-0.7l14.7,4.1c0.5,0.1,0.8,0.7,0.7,1.2
					l-0.9,3.3C23.7,51.3,23.2,51.6,22.7,51.5z M9.3,42.5c-0.4-0.1-0.7,0.1-0.8,0.5l-0.9,3.3C7.4,46.7,7.7,47,8,47.1l14.7,4.1
					c0.4,0.1,0.7-0.1,0.8-0.5l0.9-3.3c0.1-0.4-0.1-0.7-0.5-0.8L9.3,42.5z M22.8,51L8.1,46.9c-0.2-0.1-0.3-0.3-0.3-0.5l0.9-3.3
					c0.1-0.2,0.3-0.3,0.5-0.3L24,46.9c0.2,0.1,0.3,0.3,0.3,0.5l-0.9,3.3C23.3,50.9,23.1,51,22.8,51z M9.2,43c-0.1,0-0.2,0-0.2,0.1
					l-0.9,3.3c0,0.1,0,0.2,0.1,0.2l14.7,4.1c0.1,0,0.2,0,0.2-0.1l0.9-3.3c0-0.1,0-0.2-0.1-0.2L9.2,43z"/>
			</g>
			<g>
				<path d="M17.7,69.4l-1.9-0.5c-0.4-0.1-0.7-0.6-0.6-1l1.7-6.2c0.1-0.4,0.6-0.7,1-0.6l1.9,0.5c0.4,0.1,0.7,0.6,0.6,1l-1.7,6.2
					C18.6,69.2,18.2,69.5,17.7,69.4z M17.9,61.5c-0.1,0-0.3,0-0.3,0.2L15.8,68c0,0.1,0,0.3,0.2,0.3l1.9,0.5c0.1,0,0.3,0,0.3-0.2
					l1.7-6.2c0-0.1,0-0.3-0.2-0.3L17.9,61.5z"/>
				<path d="M17.7,69.5L15.8,69c-0.5-0.1-0.8-0.7-0.7-1.2l1.7-6.2c0.1-0.5,0.7-0.8,1.2-0.7l1.9,0.5c0.5,0.1,0.8,0.7,0.7,1.2
					l-1.7,6.2C18.7,69.3,18.2,69.6,17.7,69.5z M18,61.1c-0.4-0.1-0.7,0.1-0.8,0.5l-1.7,6.2c-0.1,0.4,0.1,0.7,0.5,0.8l1.9,0.5
					c0.4,0.1,0.7-0.1,0.8-0.5l1.7-6.2c0.1-0.4-0.1-0.7-0.5-0.8L18,61.1z M17.8,69L16,68.5c-0.2-0.1-0.3-0.3-0.3-0.5l1.7-6.2
					c0.1-0.2,0.3-0.3,0.5-0.3l1.9,0.5c0.2,0.1,0.3,0.3,0.3,0.5l-1.7,6.2C18.3,68.9,18.1,69,17.8,69z M17.9,61.7
					c-0.1,0-0.2,0-0.2,0.1L15.9,68c0,0.1,0,0.2,0.1,0.2l1.9,0.5c0.1,0,0.2,0,0.2-0.1l1.7-6.2c0-0.1,0-0.2-0.1-0.2L17.9,61.7z"/>
			</g>
		</g>
		<g>
			<path class="st2" d="M60,122.5l-52.7-4.6c-1.5-0.1-2.6-1.5-2.5-2.9l2.8-32.3c0.1-1.5,1.5-2.6,2.9-2.5l52.7,4.6
				c1.5,0.1,2.6,1.5,2.5,2.9L63,120C62.8,121.5,61.5,122.6,60,122.5z"/>
			
				<rect x="10.8" y="87.3" transform="matrix(8.617023e-02 -0.9963 0.9963 8.617023e-02 -78.3371 97.8781)" class="st2" width="6.8" height="8.7"/>
			
				<rect x="19.5" y="88" transform="matrix(8.617023e-02 -0.9963 0.9963 8.617023e-02 -71.132 107.2391)" class="st2" width="6.8" height="8.7"/>
			
				<rect x="28.2" y="88.8" transform="matrix(8.617023e-02 -0.9963 0.9963 8.617023e-02 -63.927 116.6001)" class="st2" width="6.8" height="8.7"/>
			
				<rect x="36.9" y="89.5" transform="matrix(8.617023e-02 -0.9963 0.9963 8.617023e-02 -56.722 125.9611)" class="st2" width="6.8" height="8.7"/>
			
				<rect x="45.6" y="90.3" transform="matrix(8.617023e-02 -0.9963 0.9963 8.617023e-02 -49.5169 135.3221)" class="st2" width="6.8" height="8.7"/>
			
				<rect x="54.3" y="91" transform="matrix(8.617023e-02 -0.9963 0.9963 8.617023e-02 -42.3119 144.6831)" class="st2" width="6.8" height="8.7"/>
			
				<rect x="10.2" y="94" transform="matrix(8.617023e-02 -0.9963 0.9963 8.617023e-02 -85.606 103.4728)" class="st2" width="6.8" height="8.7"/>
			
				<rect x="18.9" y="94.8" transform="matrix(8.617023e-02 -0.9963 0.9963 8.617023e-02 -78.4009 112.8338)" class="st2" width="6.8" height="8.7"/>
			
				<rect x="27.6" y="95.5" transform="matrix(8.617023e-02 -0.9963 0.9963 8.617023e-02 -71.1959 122.1948)" class="st2" width="6.8" height="8.7"/>
			
				<rect x="36.3" y="96.3" transform="matrix(8.617023e-02 -0.9963 0.9963 8.617023e-02 -63.9908 131.5558)" class="st2" width="6.8" height="8.7"/>
			
				<rect x="45" y="97" transform="matrix(8.617023e-02 -0.9963 0.9963 8.617023e-02 -56.7858 140.9169)" class="st2" width="6.8" height="8.7"/>
			
				<rect x="53.7" y="97.8" transform="matrix(8.617023e-02 -0.9963 0.9963 8.617023e-02 -49.5808 150.2779)" class="st2" width="6.8" height="8.7"/>
			
				<rect x="9.6" y="100.8" transform="matrix(8.617023e-02 -0.9963 0.9963 8.617023e-02 -92.8749 109.0676)" class="st2" width="6.8" height="8.7"/>
			
				<rect x="18.3" y="101.5" transform="matrix(8.617023e-02 -0.9963 0.9963 8.617023e-02 -85.6698 118.4286)" class="st2" width="6.8" height="8.7"/>
			
				<rect x="27" y="102.3" transform="matrix(8.617023e-02 -0.9963 0.9963 8.617023e-02 -78.4648 127.7896)" class="st2" width="6.8" height="8.7"/>
			
				<rect x="35.7" y="103.1" transform="matrix(8.617023e-02 -0.9963 0.9963 8.617023e-02 -71.2597 137.1506)" class="st2" width="6.8" height="8.7"/>
			
				<rect x="44.4" y="103.8" transform="matrix(8.617023e-02 -0.9963 0.9963 8.617023e-02 -64.0547 146.5116)" class="st2" width="6.8" height="8.7"/>
			
				<rect x="53.2" y="104.6" transform="matrix(8.617023e-02 -0.9963 0.9963 8.617023e-02 -56.8496 155.8726)" class="st2" width="6.8" height="8.7"/>
			
				<rect x="9" y="107.6" transform="matrix(8.617023e-02 -0.9963 0.9963 8.617023e-02 -100.1438 114.6624)" class="st2" width="6.8" height="8.7"/>
			
				<rect x="17.7" y="108.3" transform="matrix(8.617023e-02 -0.9963 0.9963 8.617023e-02 -92.9387 124.0234)" class="st2" width="6.8" height="8.7"/>
			
				<rect x="26.5" y="109.1" transform="matrix(8.617023e-02 -0.9963 0.9963 8.617023e-02 -85.7337 133.3844)" class="st2" width="6.8" height="8.7"/>
			
				<rect x="35.2" y="109.8" transform="matrix(8.617023e-02 -0.9963 0.9963 8.617023e-02 -78.5286 142.7454)" class="st2" width="6.8" height="8.7"/>
			
				<rect x="43.9" y="110.6" transform="matrix(8.617023e-02 -0.9963 0.9963 8.617023e-02 -71.3236 152.1064)" class="st2" width="6.8" height="8.7"/>
			
				<rect x="52.6" y="111.3" transform="matrix(8.617023e-02 -0.9963 0.9963 8.617023e-02 -64.1185 161.4674)" class="st2" width="6.8" height="8.7"/>
		</g>
		<g>
			<path d="M143.5,86.1l-8.4-3.5c-1.2-0.5-2.6,0.1-3.1,1.3l-1.6,3.8c-0.5,1.2,0.1,2.6,1.3,3.1l8.4,3.5c1.2,0.5,2.6-0.1,3.1-1.3
				l1.6-3.8C145.3,88,144.8,86.6,143.5,86.1z M134.9,83.2l8.4,3.5c0.6,0.3,1,0.9,1,1.5l-11.2-4.7C133.6,83.1,134.3,82.9,134.9,83.2z
				 M142.6,92.8c-0.4,0.9-1.4,1.3-2.3,0.9l-8.4-3.5c-0.9-0.4-1.3-1.4-0.9-2.3l0.9-2.1l11.6,4.8L142.6,92.8z"/>
		</g>
		<g>
			<path class="st2" d="M112.6,115h8.4c1,0,1.8-0.8,1.8-1.8v-3.4c0-1-0.8-1.8-1.8-1.8h-8.4c-1,0-1.8,0.8-1.8,1.8v3.4
				C110.8,114.2,111.6,115,112.6,115z"/>
			<rect x="112.6" y="108" class="st2" width="8.6" height="7"/>
		</g>
		<g>
			<path class="st2" d="M130.2,62.1l-28.8,5.5c-1.5,0.3-2.9-0.7-3.2-2.2l-8.9-47c-0.3-1.5,0.7-2.9,2.2-3.2l28.8-5.5
				c1.5-0.3,2.9,0.7,3.2,2.2l8.9,47C132.7,60.4,131.7,61.8,130.2,62.1z"/>
			<line class="st3" x1="93.1" y1="19.4" x2="105.5" y2="17.1"/>
			<line class="st3" x1="93.8" y1="23.2" x2="106.2" y2="20.8"/>
			<line class="st3" x1="108.8" y1="62.6" x2="121.2" y2="60.3"/>
			<line class="st3" x1="95.5" y1="32.3" x2="122.5" y2="27.2"/>
			<line class="st3" x1="96.3" y1="36.3" x2="123.2" y2="31.2"/>
			<line class="st3" x1="97" y1="40.3" x2="124" y2="35.1"/>
			<line class="st3" x1="97.8" y1="44.2" x2="124.7" y2="39.1"/>
			<line class="st3" x1="98.5" y1="48.2" x2="125.5" y2="43.1"/>
			<line class="st3" x1="99.3" y1="52.1" x2="126.2" y2="47"/>
		</g>
		<g>
			<path class="st2" d="M97.2,114.3l-11.6,2.6c-0.9,0.2-1.8-0.4-2-1.3l-7.4-33c-0.2-0.9,0.4-1.8,1.3-2L89,77.9
				c0.9-0.2,1.8,0.4,2,1.3l7.4,33C98.6,113.1,98.1,114.1,97.2,114.3z"/>
			<line class="st3" x1="78.7" y1="84.3" x2="89.4" y2="81.9"/>
			<line class="st3" x1="83.5" y1="105.9" x2="94.3" y2="103.4"/>
			<g>
				<line class="st3" x1="79.6" y1="88.4" x2="86.9" y2="86.8"/>
				<line class="st3" x1="88.9" y1="86.3" x2="90.3" y2="86"/>
			</g>
			<g>
				<line class="st3" x1="80.4" y1="91.9" x2="87.6" y2="90.3"/>
				<line class="st3" x1="89.7" y1="89.8" x2="91.1" y2="89.4"/>
			</g>
			<g>
				<line class="st3" x1="81.1" y1="95.3" x2="88.4" y2="93.7"/>
				<line class="st3" x1="90.5" y1="93.2" x2="91.9" y2="92.9"/>
			</g>
			<g>
				<line class="st3" x1="81.9" y1="98.8" x2="89.2" y2="97.1"/>
				<line class="st3" x1="91.3" y1="96.6" x2="92.7" y2="96.3"/>
			</g>
			<g>
				<line class="st3" x1="82.7" y1="102.2" x2="90" y2="100.6"/>
				<line class="st3" x1="92" y1="100.1" x2="93.4" y2="99.8"/>
			</g>
			<g>
				<line class="st3" x1="89" y1="109.2" x2="91.8" y2="108.6"/>
				<line class="st3" x1="93.9" y1="108.1" x2="95.3" y2="107.8"/>
			</g>
		</g>
		<g>
			<path class="st2" d="M28,27.7l-11.2,4.4c-0.5,0.2-1.1-0.1-1.3-0.6L7.1,10.2C6.9,9.7,7.2,9.1,7.7,8.9l11.2-4.4
				c0.5-0.2,1.1,0.1,1.3,0.6l8.4,21.4C28.7,27,28.5,27.5,28,27.7z"/>
			<line class="st3" x1="9.9" y1="11.9" x2="19.3" y2="8.2"/>
			<line class="st3" x1="14.9" y1="24.6" x2="24.3" y2="20.9"/>
			<g>
				<line class="st3" x1="11.3" y1="15.5" x2="17.7" y2="13"/>
				<line class="st3" x1="19.5" y1="12.3" x2="20.7" y2="11.8"/>
			</g>
			<g>
				<line class="st3" x1="12.5" y1="18.6" x2="18.8" y2="16.1"/>
				<line class="st3" x1="20.6" y1="15.3" x2="21.9" y2="14.9"/>
			</g>
			<g>
				<line class="st3" x1="13.7" y1="21.6" x2="20" y2="19.1"/>
				<line class="st3" x1="21.8" y1="18.4" x2="23.1" y2="17.9"/>
			</g>
			<g>
				<line class="st3" x1="20" y1="26.1" x2="22.4" y2="25.2"/>
				<line class="st3" x1="24.2" y1="24.4" x2="25.5" y2="23.9"/>
			</g>
		</g>
		<g>
			<path class="st4" d="M72.8,34.7c0.4,0.9,0,1.9-1.2,2.5l0.3,0.6c0,0.1,0,0.2-0.1,0.3c-0.1,0-0.2,0-0.3-0.1l-0.3-0.6
				c-0.7,0.3-1.4,0.4-1.9,0.4c-0.1,0-0.3-0.1-0.4-0.2c-0.1-0.2,0-0.4,0.2-0.5c0,0,0.1,0,0.2,0c0.4,0,1-0.1,1.6-0.4L70,34.8
				c-1,0.2-2.2,0.4-2.7-0.7c-0.4-0.9-0.1-1.9,1.1-2.6l-0.3-0.6c0-0.1,0-0.2,0.1-0.3c0.1-0.1,0.2,0,0.3,0.1l0.3,0.6
				c0.6-0.2,1.1-0.4,1.6-0.4c0.1,0,0.3,0,0.4,0.2c0.1,0.2,0,0.4-0.2,0.5c0,0-0.1,0-0.1,0c-0.4,0-0.9,0.1-1.3,0.4l0.9,1.9
				C71.1,33.8,72.3,33.6,72.8,34.7z M69.7,34.1l-0.9-1.8c-0.7,0.4-1,0.9-0.8,1.5C68.3,34.3,69,34.2,69.7,34.1z M72,35
				c-0.2-0.5-0.9-0.4-1.6-0.3l0.8,1.8C72,36.2,72.3,35.7,72,35z"/>
		</g>
		<g>
			<path class="st4" d="M73.6,75c-0.3,0.8-1.2,1-2.2,0.7l-0.2,0.5c0,0.1-0.1,0.1-0.2,0.1c-0.1,0-0.1-0.1-0.1-0.2l0.2-0.5
				c-0.6-0.3-1-0.7-1.3-1c-0.1-0.1-0.1-0.2-0.1-0.4C69.7,74,69.8,74,70,74c0,0,0.1,0,0.1,0.1c0.2,0.3,0.6,0.6,1.2,0.8l0.7-1.6
				c-0.7-0.5-1.4-1.2-1-2.1c0.3-0.7,1.2-1.1,2.2-0.7l0.2-0.5c0-0.1,0.1-0.1,0.2-0.1c0.1,0,0.1,0.1,0.1,0.2l-0.2,0.5
				c0.5,0.2,0.9,0.5,1.1,0.8c0.1,0.1,0.1,0.2,0.1,0.4c-0.1,0.1-0.2,0.2-0.4,0.2c0,0-0.1,0-0.1-0.1c-0.3-0.2-0.6-0.5-1-0.6l-0.7,1.7
				C73.2,73.4,74,74,73.6,75z M72.2,72.7l0.7-1.6c-0.6-0.2-1.2-0.1-1.3,0.4C71.4,71.9,71.7,72.3,72.2,72.7z M72.9,74.7
				c0.2-0.4-0.2-0.8-0.7-1.1l-0.6,1.5C72.2,75.3,72.7,75.2,72.9,74.7z"/>
		</g>
		<g>
			<path class="st4" d="M113.9,84.8c0.3,0.8-0.2,1.6-1.2,2l0.2,0.6c0,0.1,0,0.2-0.1,0.2c-0.1,0-0.2,0-0.2-0.1l-0.2-0.6
				c-0.6,0.2-1.2,0.2-1.6,0.2c-0.1,0-0.3-0.1-0.3-0.2c-0.1-0.2,0-0.3,0.2-0.4c0,0,0.1,0,0.1,0c0.3,0,0.8,0,1.4-0.2l-0.6-1.6
				c-0.9,0.1-1.8,0.1-2.2-0.8c-0.3-0.8,0.1-1.6,1.1-2.1l-0.2-0.6c0-0.1,0-0.2,0.1-0.2c0.1,0,0.2,0,0.2,0.1l0.2,0.5
				c0.5-0.2,1-0.2,1.4-0.2c0.1,0,0.2,0,0.3,0.2c0.1,0.1,0,0.3-0.2,0.4c0,0-0.1,0-0.1,0c-0.3,0-0.7,0.1-1.1,0.2l0.6,1.7
				C112.6,83.9,113.6,83.8,113.9,84.8z M111.4,84l-0.6-1.6c-0.6,0.3-0.9,0.7-0.7,1.2C110.2,84.1,110.8,84.1,111.4,84z M113.3,85
				c-0.2-0.4-0.7-0.4-1.3-0.3l0.6,1.5C113.1,85.9,113.5,85.5,113.3,85z"/>
		</g>
		<g>
			<path class="st4" d="M4,22.4c-0.2,0.6-0.9,0.8-1.7,0.5l-0.2,0.4c0,0.1-0.1,0.1-0.2,0.1c-0.1,0-0.1-0.1-0.1-0.2l0.2-0.4
				c-0.5-0.2-0.8-0.5-1-0.7C1,22,1,21.9,1,21.8c0-0.1,0.2-0.2,0.3-0.1c0,0,0.1,0,0.1,0.1c0.2,0.2,0.5,0.4,0.9,0.6l0.5-1.2
				c-0.5-0.4-1.1-0.9-0.8-1.6c0.2-0.6,0.9-0.8,1.7-0.5l0.2-0.4c0-0.1,0.1-0.1,0.2-0.1c0.1,0,0.1,0.1,0.1,0.2l-0.2,0.4
				c0.4,0.2,0.6,0.4,0.9,0.6c0.1,0.1,0.1,0.1,0.1,0.3c0,0.1-0.2,0.2-0.3,0.1c0,0-0.1,0-0.1-0.1c-0.2-0.2-0.4-0.3-0.7-0.5l-0.5,1.2
				C3.7,21.3,4.3,21.7,4,22.4z M3,20.7l0.5-1.2c-0.5-0.1-0.9-0.1-1,0.3C2.3,20.1,2.6,20.4,3,20.7z M3.5,22.2
				c0.1-0.3-0.2-0.6-0.5-0.9l-0.5,1.1C3,22.6,3.3,22.6,3.5,22.2z"/>
		</g>
		<g>
			<path class="st4" d="M135,76.6c-0.1,0.6-0.8,1-1.6,0.9l-0.1,0.5c0,0.1-0.1,0.1-0.2,0.1c-0.1,0-0.1-0.1-0.1-0.2l0.1-0.5
				c-0.5-0.1-0.9-0.4-1.2-0.6c-0.1-0.1-0.1-0.2-0.1-0.3c0-0.1,0.1-0.2,0.3-0.2c0,0,0.1,0,0.1,0c0.2,0.2,0.6,0.4,1,0.5l0.3-1.4
				c-0.6-0.3-1.3-0.7-1.1-1.5c0.1-0.6,0.7-1.1,1.7-0.9l0.1-0.5c0-0.1,0.1-0.1,0.2-0.1c0.1,0,0.1,0.1,0.1,0.2l-0.1,0.5
				c0.4,0.1,0.7,0.3,1,0.4c0.1,0,0.1,0.1,0.1,0.3c0,0.1-0.1,0.2-0.3,0.2c0,0-0.1,0-0.1,0c-0.2-0.1-0.5-0.3-0.9-0.4l-0.3,1.4
				C134.5,75.4,135.2,75.8,135,76.6z M133.6,75l0.3-1.3c-0.5-0.1-0.9,0.1-1,0.5C132.8,74.5,133.2,74.8,133.6,75z M134.5,76.4
				c0.1-0.3-0.3-0.6-0.7-0.8l-0.3,1.3C134,77,134.4,76.9,134.5,76.4z"/>
		</g>
		<g>
			<path class="st4" d="M109.3,120.7c0.3,0.6,0,1.3-0.8,1.7l0.2,0.4c0,0.1,0,0.1-0.1,0.2c-0.1,0-0.1,0-0.2-0.1l-0.2-0.4
				c-0.5,0.2-1,0.3-1.3,0.3c-0.1,0-0.2,0-0.3-0.1c-0.1-0.1,0-0.3,0.1-0.3c0,0,0.1,0,0.1,0c0.3,0,0.7,0,1.1-0.2l-0.6-1.3
				c-0.7,0.1-1.5,0.2-1.8-0.5c-0.3-0.6,0-1.3,0.8-1.7l-0.2-0.4c0-0.1,0-0.1,0.1-0.2c0.1,0,0.2,0,0.2,0.1l0.2,0.4
				c0.4-0.2,0.8-0.2,1.1-0.3c0.1,0,0.2,0,0.3,0.2c0,0.1,0,0.3-0.1,0.3c0,0-0.1,0-0.1,0c-0.3,0-0.6,0.1-0.9,0.2l0.6,1.3
				C108.2,120.1,108.9,120,109.3,120.7z M107.2,120.3l-0.6-1.2c-0.4,0.3-0.7,0.6-0.5,1C106.3,120.4,106.7,120.3,107.2,120.3z
				 M108.8,120.9c-0.1-0.3-0.6-0.3-1.1-0.2l0.5,1.2C108.7,121.7,109,121.4,108.8,120.9z"/>
		</g>
		<circle class="st3" cx="80.7" cy="14.2" r="1.8"/>
		<circle class="st3" cx="98.5" cy="3.7" r="3.2"/>
		<circle class="st3" cx="138.3" cy="6.9" r="2.4"/>
		<circle class="st3" cx="32.5" cy="68.5" r="1.9"/>
		<circle class="st3" cx="44.1" cy="4.2" r="2"/>
		<circle class="st3" cx="37.8" cy="37.9" r="2.8"/>
		<circle class="st3" cx="98.1" cy="75.9" r="2.8"/>
		<circle class="st3" cx="117.7" cy="98.3" r="1.8"/>
	</g>
</g>
</svg>
